<svg version="1.1" id="Ebene_1" xmlns="http://www.w3.org/2000/svg" x="0" y="0" viewBox="0 0 156 40" xml:space="preserve"><style>.st0{fill:#006ec7}.st1{fill:#887d75}</style><path class="st0" d="M10 22.6c-.8.5-2.1 1.1-3.2 1.2C5 23.9 5 22.1 5 20.9c0-1.3.6-1.7 2-1.7h3v3.4zm4.1-7.2c0-4.1-1.6-6-6.8-6-1.9 0-4.1.3-5.7.8l.5 3.2c1.5-.3 3.2-.5 4.6-.5 2.7 0 3.2.5 3.2 2.4v.9H5.6C2.3 16.2 1 18.6 1 22c0 2.9 1.3 4.9 4.3 4.9 1.7 0 3.4-.5 4.9-1.5l.3 1.3h3.3V15.4h.3zM27.5 21.7c-.9.8-2.4 1.5-3.7 1.5-1.6 0-2.1-.8-2.1-2.2v-5.9c0-1.5.6-2.1 2.1-2.1 1.2 0 2.7.2 3.7.5v8.2zm-10.1-.8c0 3.8 1.8 5.8 5.2 5.8 2.1 0 3.8-.7 5.3-1.8l.5 1.6h3.3v-24l-4.2.6v6.8c-1.3-.3-3.1-.5-4.5-.5-3.9 0-5.6 2.1-5.6 5.8v5.7zM90.3 15.8v4.5c0 1.9-.9 2.9-3.1 2.9-2.3 0-3.1-1-3.1-2.9v-4.5c0-1.9.9-2.9 3.1-2.9s3.1 1 3.1 2.9m4.2 4.4V16c0-3.4-1.6-6.6-7.3-6.6S80 12.5 80 16v4.2c0 3.4 1.6 6.6 7.3 6.6 5.7-.1 7.2-3.3 7.2-6.6M62.8 21.3c-.2-3.4-.6-4-5.3-5-2.3-.5-2.4-.6-2.5-1.9 0-1 .2-1.5 2.1-1.6 1.3-.1 3.3.1 4.6.3l.3-3.4c-1.5-.3-3.4-.4-5-.4-4.7.2-6.1 1.8-6 5.1.2 3.3.7 4.2 4.8 5 2.8.5 3 1 3.1 2.1.1 1.3-.2 1.7-2.1 1.8-1.7.1-3.5-.1-5-.5l-.4 3.3c1.6.5 4 .8 5.8.7 4.9-.3 5.8-2.4 5.6-5.5M77.5 21.3c-.2-3.4-.6-4-5.3-5-2.3-.5-2.4-.6-2.5-1.9 0-1 .2-1.5 2.1-1.6 1.3-.1 3.3.1 4.6.3l.3-3.3c-1.5-.3-3.4-.4-5-.4-4.7.2-6.1 1.8-6 5.1.2 3.3.7 4.2 4.8 5 2.8.5 3 1 3.1 2.1.1 1.3-.2 1.7-2.1 1.8-1.7.1-3.5-.1-5-.5l-.4 3.3c1.6.5 4 .8 5.8.7 4.8-.4 5.7-2.5 5.6-5.6M39.2 15.5c0-1.6.7-2.7 2.8-2.7s2.6 1.1 2.6 2.7v.8h-5.3c-.1 0-.1-.8-.1-.8zm0 5v-.9h9.3v-3.5c0-3.6-1.2-6.7-6.5-6.7s-6.9 3-6.9 6.5v4.4c0 4 1.8 6.4 7.1 6.4 2 0 3.6-.2 5.5-.9l.5-3.2c-2.3.6-3.9 1-5.5.8-2.7-.2-3.5-.8-3.5-2.9"/><path class="st1" d="M103.9 0v29L93.6 39h2.2l9.6-9.4V0z"/><g id="claim"><path class="st1" d="M117 26.1l-.2-.3c-.2.2-.4.3-.7.3-.2 0-.7-.1-.6-.7v-2.1h1.4v-.4h-1.4v-.8h-.3c-.2.3-.5.7-.9.9v.3h.5v2.4c0 .7.5.9 1.1.9.5 0 1-.3 1.1-.5M119.7 24.2H118c0-.5.3-1.1.9-1.1s.8.6.8 1.1m.7.3c0-1.1-.6-1.8-1.5-1.8-1 0-1.7.8-1.7 2 0 1.1.6 2 1.7 2 1 0 1.4-.6 1.5-.7l-.2-.3s-.3.4-1 .4c-.5 0-1.3-.3-1.3-1.5l2.5-.1zM124.1 25.9l-.2-.3c-.3.3-.6.4-1 .4-.7 0-1.3-.6-1.3-1.6 0-.9.4-1.3.9-1.3s.9.3 1.1.5l.5-.5c-.2-.2-.6-.5-1.2-.5-.8 0-1.9.7-1.9 2s.8 2 1.7 2c.6 0 1.2-.3 1.4-.7M128.8 26.6v-.3c-.3 0-.6 0-.6-.5V24c0-1.1-.9-1.2-1.2-1.2-.8 0-1.2.5-1.3.6v-2.9h-.3c-.3.1-.8.2-1.1.2v.3c.3.1.4.1.7.2v4.6c0 .5-.3.5-.6.5v.2h2v-.3c-.3 0-.6 0-.6-.5v-2.2c.1-.2.5-.4.9-.4.5 0 .9.3.9.8v1.7c0 .5-.3.5-.6.5v.4h1c.3 0 .6.1.8.1M133.6 26.6v-.3c-.3 0-.6 0-.6-.5V24c0-1.1-.9-1.2-1.2-1.2-.8 0-1.2.5-1.3.6v-.6h-.3c-.3.1-.8.2-1.1.2v.3c.3.1.4.1.7.2v2.4c0 .5-.3.5-.6.5v.2h2v-.3c-.3 0-.6 0-.6-.5v-2.2c.1-.2.5-.4.9-.4.5 0 .9.3.9.8v1.7c0 .5-.3.5-.6.5v.4h1c.3-.1.6 0 .8 0M137.3 24.6c0 .7-.2 1.6-1.1 1.6-.9 0-1.2-.8-1.2-1.6 0-.7.2-1.6 1.2-1.6.8 0 1.1.9 1.1 1.6m.8 0c0-1.2-.7-2-1.9-2-1 0-2 .8-2 2 0 1.3.8 2 1.9 2 1 0 2-.7 2-2M140.5 26.6v-.3c-.3 0-.6 0-.6-.5v-5.3h-.3c-.3.1-.8.2-1.1.2v.3c.3.1.4.1.7.2v4.6c0 .5-.3.5-.6.5v.3h1c.4-.1.7 0 .9 0M144.2 24.6c0 .7-.2 1.6-1.1 1.6s-1.2-.8-1.2-1.6c0-.7.2-1.6 1.2-1.6.9 0 1.1.9 1.1 1.6m.8 0c0-1.2-.7-2-1.9-2-1 0-2 .8-2 2 0 1.3.8 2 1.9 2s2-.7 2-2M148.6 27.2c0 .4-.5.8-1.2.8s-1.3-.3-1.3-.8c0-.3.3-.6.5-.6.4 0 .6.1.9.1.6.1 1.1.1 1.1.5m-.4-3.2c0 .5-.3 1-.9 1-.5 0-.9-.4-.9-1 0-.5.3-1 .9-1 .5 0 .9.4.9 1m1.1-.7v-.4h-1.1c-.2-.1-.4-.2-.9-.2-.9 0-1.6.6-1.6 1.4s.6 1.1.8 1.2c-.2.1-.7.4-.7.7s.3.5.5.5c-.3.1-.8.5-.8 1s.7 1 1.7 1c1.2 0 2-.9 2-1.6s-.8-.8-1.5-.8c-.7-.1-1.3-.1-1.3-.4 0-.2.2-.4.4-.4 0 0 .1.1.5.1.8 0 1.6-.5 1.6-1.4 0-.4-.2-.6-.2-.8l.6.1zM153.8 23.2v-.3h-1.6v.3c.3 0 .5.1.5.4 0 .1 0 .2-.1.2l-.8 2.1-.9-2.2c-.1-.3 0-.4.5-.4V23h-2v.3c.3 0 .4 0 .5.3l1.3 3.2h.2l-.2.5c-.3.7-.5.9-.9.8-.2 0-.4-.1-.5-.2l-.4.5c.2.2.5.3.8.3.4 0 .6-.2.8-.4.2-.3.4-.6.6-1l1.3-3.3c.4-.7.6-.8.9-.8M155 26.2c0-.2-.1-.5-.5-.5s-.5.2-.5.5c0 .2.1.5.5.5.4-.1.5-.3.5-.5M117.5 15.7c0 1.1-.5 1.5-1.2 1.5-.6 0-.9-.3-.9-.3v-2.4c.1-.1.3-.3.9-.3.7 0 1.2.6 1.2 1.5m.8-.2c0-.9-.5-1.8-1.6-1.8-.8 0-1.1.4-1.2.5v-.5h-.3c-.3.1-.8.2-1.1.2v.3c.3.1.4.1.7.2v4.2c0 .5-.3.5-.6.5v.3h2v-.3c-.3 0-.7 0-.7-.5v-1.2s.2.2.9.2c.9 0 1.9-.8 1.9-2.1M121.4 15.2h-1.8c0-.5.3-1.1.9-1.1.7 0 .9.6.9 1.1m.7.4c0-1.1-.6-1.8-1.5-1.8-1 0-1.7.8-1.7 2 0 1.1.6 2 1.7 2 1 0 1.4-.6 1.5-.7l-.2-.3s-.3.4-1 .4c-.5 0-1.3-.3-1.3-1.5l2.5-.1zM125.9 15.7c0 .7-.2 1.6-1.1 1.6s-1.2-.8-1.2-1.6c0-.7.2-1.6 1.2-1.6.8 0 1.1.9 1.1 1.6m.6 0c0-1.2-.7-2-1.9-2-1 0-2 .8-2 2s.8 2 1.9 2c1.2-.1 2-.9 2-2M130.6 15.7c0 1.1-.5 1.5-1.2 1.5-.6 0-.9-.3-.9-.3v-2.4c.1-.1.3-.3.9-.3.7 0 1.2.6 1.2 1.5m.7-.2c0-.9-.5-1.8-1.6-1.8-.8 0-1.1.4-1.2.5v-.5h-.3c-.3.1-.8.2-1.1.2v.3c.3.1.4.1.7.2v4.2c0 .5-.3.5-.6.5v.3h2v-.3c-.3 0-.7 0-.7-.5v-1.2s.2.2.9.2c.9 0 1.9-.8 1.9-2.1M133.8 17.5v-.3c-.3 0-.6 0-.6-.5v-5.3h-.3c-.3.1-.8.2-1.1.2v.3c.3.1.4.1.7.2v4.6c0 .5-.3.5-.6.5v.3h1.9M136.9 15.2h-1.8c0-.5.3-1.1.9-1.1.6 0 .9.6.9 1.1m.7.4c0-1.1-.6-1.8-1.5-1.8-1 0-1.7.8-1.7 2 0 1.1.6 2 1.7 2 1 0 1.4-.6 1.5-.7l-.2-.3s-.3.4-1 .4c-.5 0-1.3-.3-1.3-1.5l2.5-.1zM139.2 17.1c0-.2-.1-.5-.5-.5s-.5.2-.5.5c0 .2.1.5.5.5.3 0 .5-.2.5-.5M117.5 7.6c0 .9-.5 1.5-1.2 1.5-.5 0-.7-.1-.8-.3V6.3c.1-.1.3-.3.8-.3.8 0 1.2.7 1.2 1.6m.7-.3c0-1-.6-1.8-1.6-1.8-.7 0-1 .3-1.2.4V3.2h-.3c-.3.1-.8.2-1.1.2v.3c.3.1.4.1.7.2V9c.3.2.7.4 1.3.4 1.5.1 2.2-1.1 2.2-2.1M123.1 9.2v-.3c-.3-.1-.4-.1-.7-.1V5.5h-.3c-.3.1-.8.2-1.1.2V6c.3.1.4.1.7.2v2.4c-.2.2-.5.4-.9.4-.6 0-.9-.3-.9-.9V5.6h-.3c-.2.1-.7.2-1.1.2v.3c.3.1.3.1.7.2v1.9c0 .9.5 1.4 1.2 1.4.8 0 1.3-.4 1.3-.6v.6h.3c.4-.2.8-.4 1.1-.4M126.2 8.2c0-1.2-2.1-.9-2.1-1.8 0-.4.2-.6.7-.6.7 0 .8.4.8.8h.3v-.5-.5c-.4 0-.6-.1-1.1-.1s-1.3.3-1.3 1.2c0 1.3 2 .8 2 1.8 0 .3-.2.6-.8.6-.9 0-1-.6-1-.9h-.3v1c.4 0 .6.2 1.2.2.9.1 1.6-.4 1.6-1.2M128.7 9.4v-.3c-.3 0-.6 0-.6-.5V5.5h-.3c-.3.1-.8.2-1.1.2V6c.3.1.4.1.7.2v2.4c0 .5-.3.5-.6.5v.3h1.9m-.5-5.3c0-.2-.1-.5-.5-.5s-.5.2-.5.5c0 .2.1.5.5.5.3 0 .5-.2.5-.5M133.5 9.4v-.3c-.3 0-.6 0-.6-.5V6.8c0-1.1-.9-1.2-1.2-1.2-.8 0-1.2.5-1.3.6v-.6h-.3c-.3.1-.8.2-1.1.2v.3c.3.1.4.1.7.2v2.4c0 .5-.3.5-.6.5v.3h2v-.3c-.3 0-.6 0-.6-.5V6.6c.1-.2.5-.4.9-.4.5 0 .9.3.9.8v1.7c0 .5-.3.5-.6.5v.3h1c.3-.1.6-.1.8-.1M136.6 7h-1.8c0-.5.3-1.1.9-1.1.6 0 .9.6.9 1.1m.7.4c0-1.1-.6-1.8-1.5-1.8-1 0-1.7.8-1.7 2 0 1.1.6 2 1.7 2 1 0 1.4-.6 1.5-.7l-.2-.3s-.3.4-1 .4c-.5 0-1.3-.3-1.3-1.5l2.5-.1zM140.6 8.2c0-1.2-2.1-.9-2.1-1.8 0-.4.2-.6.7-.6.7 0 .8.4.8.8h.3v-.5-.5c-.4 0-.6-.1-1.1-.1s-1.2.3-1.2 1.2c0 1.3 2 .8 2 1.8 0 .3-.2.6-.8.6-.9 0-1-.6-1-.9h-.3v1c.4 0 .6.2 1.2.2.7.1 1.5-.4 1.5-1.2M143.9 8.2c0-1.2-2.1-.9-2.1-1.8 0-.4.2-.6.7-.6.7 0 .8.4.8.8h.3v-.5-.5c-.4 0-.6-.1-1.1-.1s-1.3.3-1.3 1.2c0 1.3 2 .8 2 1.8 0 .3-.2.6-.8.6-.9 0-1-.6-1-.9h-.3v1c.4 0 .6.2 1.2.2.9.1 1.6-.4 1.6-1.2M145.6 9c0-.2-.1-.5-.5-.5s-.5.2-.5.5c0 .2.1.5.5.5.3 0 .5-.3.5-.5"/></g></svg>